Coordinates
version=1
nRows=20
nColumns=34
inDegrees=yes

Units are S.I. units (second, meters, Newtons, ...)
If the header above contains a line with 'inDegrees', this indicates whether rotational values are in degrees (yes) or radians (no).

endheader
time	pelvis_tilt	pelvis_list	pelvis_rotation	pelvis_tx	pelvis_ty	pelvis_tz	hip_flexion_r	hip_adduction_r	hip_rotation_r	knee_angle_r	ankle_angle_r	subtalar_angle_r	mtp_angle_r	hip_flexion_l	hip_adduction_l	hip_rotation_l	knee_angle_l	ankle_angle_l	subtalar_angle_l	mtp_angle_l	lumbar_extension	lumbar_bending	lumbar_rotation	arm_flex_r	arm_add_r	arm_rot_r	elbow_flex_r	pro_sup_r	arm_flex_l	arm_add_l	arm_rot_l	elbow_flex_l	pro_sup_l
      2.08333330	     -2.24419003	      1.49127633	     -3.97031946	      1.82269448	      0.88440691	     -0.17397076	      0.97469599	     -5.62945050	      0.13391898	      0.00000000	      2.03891547	    -16.18159882	      0.00000000	     -0.41425254	     -3.13953971	     -4.53018495	      0.00000000	      3.14865114	     -1.47123516	      0.00000000	    -12.10744623	      0.08023110	     -1.01621007	     15.01237898	     -0.28874655	     33.25413644	     63.07901383	     82.92234743	     14.04234728	     -6.25873496	     33.42217588	     55.37973052	     81.30197507
      2.10000000	     -2.29238559	      1.49524474	     -3.89676347	      1.82257217	      0.88237334	     -0.17372637	      1.01833509	     -5.59416651	      0.19448979	      0.00000000	      2.08211604	    -16.22304683	      0.00000000	     -0.32724242	     -3.16665547	     -4.54741914	      0.00121809	      3.23688831	     -1.49981785	      0.00000000	    -12.06311709	      0.08555140	     -0.99188263	     15.17017759	     -0.25540119	     33.22743439	     63.21082609	     82.89350307	     14.24640820	     -6.26195180	     33.35899541	     55.50960729	     81.29884668
      2.11666670	     -2.55390913	      1.48389456	     -3.92847274	      1.82205379	      0.88060638	     -0.17343486	      1.37496824	     -5.53147919	      0.52522211	      0.00000000	      1.87186093	    -16.95979816	      0.00000000	      0.13419076	     -3.23211806	     -4.47074715	      0.29152774	      3.72259422	     -1.46408563	      0.00000000	    -12.13392851	      0.11311351	     -0.91068454	     14.99606841	     -0.50667113	     33.06969687	     64.75212219	     82.31229156	     14.19305165	     -6.44877137	     33.08034584	     56.92266422	     81.29192788
      2.13333330	     -2.58517969	      1.45693457	     -3.91627729	      1.82141543	      0.87921590	     -0.17347913	      1.43981185	     -5.49586062	      0.57386044	      0.00000000	      1.93130576	    -16.99155378	      0.00000000	      0.16285837	     -3.26252054	     -4.45355831	      0.21851042	      3.77748765	     -1.46987649	      0.00000000	    -12.06609288	      0.10731521	     -0.97385066	     15.18900716	     -0.42825638	     33.03239635	     64.81920951	     82.28931458	     14.49104455	     -6.37548184	     33.02354768	     57.01606724	     81.28949077
      2.15000000	     -2.65802476	      1.44713720	     -3.87794112	      1.82068998	      0.87836117	     -0.17406138	      1.56196130	     -5.47979630	      0.64358715	      0.00952501	      2.02410051	    -17.04636388	      0.00000000	      0.28178711	     -3.27885906	     -4.38821917	      0.19376970	      3.85501432	     -1.46346390	      0.00000000	    -12.05462776	      0.14206215	     -0.97915689	     15.51592442	     -0.28769897	     32.97741910	     64.94100041	     82.26131777	     14.86782196	     -6.32278891	     32.93843468	     57.13539685	     81.28472079
      2.16666670	     -2.72043698	      1.44164188	     -3.88857740	      1.82050290	      0.87713872	     -0.17523635	      1.71571793	     -5.49435557	      0.70881431	      0.09157182	      2.11252931	    -17.11430462	      0.00000000	      0.43406044	     -3.27333013	     -4.33339164	      0.28106003	      3.94667783	     -1.47589759	      0.00000000	    -12.05486731	      0.18889435	     -1.04685840	     15.86890187	     -0.18047921	     32.90046127	     65.08514938	     82.23146261	     15.26963518	     -6.21023673	     32.85896021	     57.28779439	     81.27947747
      2.18333330	     -3.22520114	      1.47888297	     -3.86393559	      1.81962078	      0.87682926	     -0.17594957	      2.77333078	     -5.52832478	      0.94237769	      0.93472283	      2.45279905	    -17.65537834	      0.00000000	      1.46633967	     -3.28431520	     -4.24535770	      1.04954285	      4.43699989	     -1.77010106	      0.00000000	    -11.97010949	      0.19611248	     -0.99848463	     16.11007214	     -0.17304383	     32.62384899	     65.97090017	     81.85230126	     15.43893668	     -6.21402828	     32.50638849	     58.08405577	     81.22749311
      2.20000000	     -3.28116613	      1.49357453	     -3.85229795	      1.81902622	      0.87854659	     -0.17557829	      2.85106318	     -5.57299436	      0.95414555	      0.95187708	      2.44775497	    -17.65106757	      0.00000000	      1.54162389	     -3.23789772	     -4.31607089	      1.04390510	      4.42913149	     -1.80538467	      0.00000000	    -11.85681710	      0.25229234	     -1.06618934	     16.43659821	     -0.07139805	     32.54927571	     66.06608577	     81.83202257	     15.82569313	     -6.10082530	     32.42966057	     58.19844362	     81.22197251
      2.21666670	     -3.46775292	      1.54180918	     -3.87189704	      1.81695969	      0.87936558	     -0.17449304	      3.34473084	     -5.60566934	      1.02381759	      1.28731095	      2.47189996	    -17.64211696	      0.00000000	      2.07021678	     -3.21453877	     -4.44245269	      1.47210057	      4.27843779	     -1.89353571	      0.00000000	    -12.21632047	      0.22525995	     -1.04807200	     17.14620743	      0.11889792	     32.31357281	     66.19709861	     81.75252731	     16.43077459	     -6.01523722	     32.22483797	     58.34442105	     81.19897487
      2.23333330	     -3.90519946	      1.60194864	     -3.92380347	      1.81543812	      0.87937941	     -0.17385928	      4.17156581	     -5.64059513	      1.04915915	      1.77362881	      2.79051636	    -17.73989443	      0.00000000	      2.83869071	     -3.20313781	     -4.65174504	      1.91494645	      4.36305012	     -2.27921796	      0.00000000	    -12.00452309	      0.20910092	     -0.97126168	     17.54645254	      0.35237403	     31.84399484	     66.26712461	     81.51565379	     16.86585109	     -5.87218288	     31.87319169	     58.68295989	     81.14648002
      2.25000000	     -4.06575697	      1.64951469	     -3.91880161	      1.81476648	      0.87854058	     -0.17407903	      4.30966277	     -5.68271014	      1.10193916	      1.59829820	      2.80227157	    -17.69877914	      0.00000000	      3.04254527	     -3.15525373	     -4.67878207	      1.87156321	      4.29922596	     -2.26829722	      0.00000000	    -11.92716060	      0.25230758	     -1.00357019	     18.07961565	      0.49783773	     31.70876516	     66.38072935	     81.49260489	     17.36006785	     -5.74825892	     31.77078273	     58.81520250	     81.13914372
      2.26666670	     -4.32273510	      1.71399223	     -3.93433163	      1.81367362	      0.87754526	     -0.17459176	      4.80254687	     -5.74562983	      1.16520550	      1.77011575	      2.73571822	    -17.59281253	      0.00000000	      3.72209561	     -3.13716098	     -4.83993330	      2.40697882	      4.04943095	     -2.31512296	      0.00000000	    -12.21580266	      0.19945041	     -0.99130128	     18.80423725	      0.70993694	     31.37678555	     66.45438192	     81.41390535	     18.02466484	     -5.62493838	     31.55601763	     59.02361436	     81.11828761
      2.28333330	     -5.05725282	      1.80496932	     -3.99396711	      1.81333932	      0.87633904	     -0.17491656	      5.89899889	     -5.80484336	      1.13010670	      2.14738412	      2.98705372	    -17.60408424	      0.00000000	      4.83779566	     -3.12151922	     -4.99769942	      2.86084423	      4.20401331	     -2.56606001	      0.00000000	    -11.69617880	      0.18800095	     -0.92274500	     19.02032099	      1.05839399	     30.57768058	     66.62543653	     81.12986469	     18.28872075	     -5.49957598	     31.16005351	     59.61508144	     81.06905793
      2.30000000	     -5.23872077	      1.85860464	     -4.05043671	      1.81337965	      0.87590973	     -0.17523071	      6.07251754	     -5.86222300	      1.09854099	      1.98531213	      2.96574870	    -17.58582588	      0.00000000	      5.10325758	     -3.07764981	     -5.10433681	      2.88364796	      4.13243733	     -2.57793260	      0.00000000	    -11.75086904	      0.22267039	     -0.95067538	     19.51371022	      1.25502532	     30.47179558	     66.74718767	     81.10882581	     18.81441858	     -5.36276578	     31.05288730	     59.75563147	     81.06185928
      2.31666670	     -5.44568332	      1.92232032	     -4.18685062	      1.81253377	      0.87524967	     -0.17571822	      6.53337916	     -5.90920873	      1.03590886	      2.18465448	      2.83139485	    -17.53217680	      0.00000000	      5.72420265	     -3.07539804	     -5.28877034	      3.47119174	      3.99548496	     -2.60270771	      0.00000000	    -12.02360579	      0.17680831	     -0.93561376	     20.08179394	      1.43574642	     30.22496663	     66.87586418	     81.05488728	     19.38819107	     -5.21981527	     30.87626151	     60.01904882	     81.04724836
      2.33333330	     -6.13890916	      2.00517539	     -4.33629548	      1.81182704	      0.87497370	     -0.17634385	      7.56028761	     -5.94279289	      0.97901631	      2.49041896	      3.01087978	    -17.62437953	      0.00000000	      6.81424689	     -3.08417718	     -5.43579641	      4.02069090	      4.33989007	     -2.67705082	      0.00000000	    -11.63555253	      0.17526158	     -0.83612586	     20.22026531	      1.66582258	     29.60244884	     67.05536356	     80.88005032	     19.56349196	     -5.08937292	     30.57633608	     60.71616135	     81.02276943
      2.35000000	     -6.33106928	      2.09406939	     -4.45265824	      1.81112206	      0.87534794	     -0.17657238	      7.76252156	     -6.03748369	      0.94479884	      2.30662381	      2.99321980	    -17.59861457	      0.00000000	      7.10840247	     -2.99182084	     -5.50520867	      4.08512279	      4.27945319	     -2.67117752	      0.00000000	    -11.79020913	      0.25096649	     -0.82475334	     20.57328316	      1.81517354	     29.52445848	     67.09534863	     80.86542526	     20.03227522	     -4.97450381	     30.47349413	     60.85653382	     81.01770468
      2.36666670	     -6.89648465	      2.16821598	     -4.61478896	      1.80953606	      0.87519773	     -0.17535265	      8.75677172	     -6.04458912	      0.88809694	      2.72119689	      3.11692339	    -17.42686684	      0.00000000	      8.23411483	     -3.04018894	     -5.72070033	      4.93974111	      4.45193629	     -2.70886976	      0.00000000	    -11.65677613	      0.15780730	     -0.68048671	     20.79274720	      2.06196656	     29.00162355	     66.99018538	     80.72489061	     20.33116868	     -4.89122110	     30.19879320	     61.59743641	     81.02373285
      2.38333330	     -7.07054507	      2.23383641	     -4.70086153	      1.80830835	      0.87576507	     -0.17361373	      9.01052304	     -6.06554145	      0.85136474	      2.63227378	      3.11978179	    -17.37059857	      0.00000000	      8.66664858	     -3.02758037	     -5.87657684	      5.31182899	      4.36973783	     -2.74064038	      0.00000000	    -11.90257489	      0.10895338	     -0.61410580	     21.12377835	      2.27846695	     28.93158591	     66.97915300	     80.70443565	     20.85370660	     -4.81850517	     30.06184313	     61.79028588	     81.02207872
      2.40000000	     -7.33345067	      2.26913173	     -4.78664563	      1.80669082	      0.87631745	     -0.17282313	      9.56169446	     -6.02734517	      0.83088748	      2.89159467	      3.23261345	    -17.27739626	      0.00000000	      9.41901301	     -3.10146122	     -6.12130866	      6.09696324	      4.48694515	     -2.83930705	      0.00000000	    -12.23345559	      0.06077559	     -0.48631793	     21.40110747	      2.41340978	     28.74357299	     66.81603041	     80.66024383	     21.24781498	     -4.74155974	     29.95611959	     62.17961806	     81.03441214
